# xmcd
#
# Track frame offsets:
#	150
#	27459
#	43124
#	52529
#	60931
#	71841
#	93359
#	110069
#	135553
#	149513
#	156268
#	183429
#	239355
#	255895
#	284668
#
# Disc length: 3923 seconds
#
# Revision: 0
# Processed by: cddbd v1.5.2PL0 Copyright (c) Steve Scherf et al.
# Submitted via: EasyCDDAExtractor 16.0.6.1
#
DISCID=d60f510f
DTITLE=Συλλογικός δίσκος - 'Υμνοι της Μεγάλης Εβδομάδος κ ψαλμωδίες
DYEAR=2014
DGENRE=Βυζ. Εκκλησιαστική
TTITLE0=Σεραφείμ Αρχιεπ. Αθηνών κ πάσης Ελλάδος - Οίκοι της Θεοτόκου
TTITLE1=Βυζ. χορ. Ι.Ν. Μεταμορφώσεως Μοσχάτου - Αλληλούϊα-Ιδού ο Νυμφίος
TTITLE2=Χριστόδουλος Αρχιεπ. Αθηνών κ πάσης Ελλάδος - Πόρνη προσήλθε Σοι [κάθι
TTITLE2=σμα Μ. Τρίτης]
TTITLE3=Χορός Βουλγάρων ψαλτών - Τα Πάθη τα Σεπτά [παραδ. μέλος Μ. Τρίτης στην
TTITLE3=βουλγ.]
TTITLE4=Κακουλίδης Νίκος - Εξέδυσάν με τα ιμάτιά μου
TTITLE5=Ψάλτης - Σήμερον κρεμάται
TTITLE6=Χορωδία - Τού Δείπνου Σου τού Μυστικού
TTITLE7=Ιερεύς - 12ο Ευαγγέλιο της Μ. Πέμπτης
TTITLE8=Σίρκας Γ. Πρωτοψάλτης-χορός - Επιτάφιος Θρήνος
TTITLE9=Κακουλίδης Νίκος - Η Ζωή εν Τάφω-Αι Γενεαί Πάσαι [εγκώμια]
TTITLE10=Χορ. Πολιούχου Ζακύνθου[1]-Χορ. Κεφαλλονιάς[2] - Ύμνος τριών παίδων[Γ
TTITLE10=Σούλης,]-Φως ιλαρόν[2. Σπ. Έρτσος]
TTITLE11=Ιερεύς-χορός - Ιδού σκοτία και πρωΐ [τελ. Αν/εως, Δεύτε κ Χριστός Αν.
TTITLE11=]
TTITLE12=Δημήτριος Οικ. Πατριάρχης-Χοροί Πατριαρχείου - Τελετή Σταυροπροσκυνήσ
TTITLE12=εως
TTITLE13=Δημήτριος Οικ. Πατριάρχης-Αστέρης λ. Πρωτ. Πατρ. - Χαιρετισμοί στην Π
TTITLE13=αναγία Βλαχερνών ΚΠόλεως
TTITLE14=Στανίτσας Θρασύβουλος-χορ. Μουσικοφ. ΚΠόλεως - Τη Υπερμάχω Στρατηγώ τ
TTITLE14=α νικητήρια
EXTD=
EXTT0=
EXTT1=
EXTT2=
EXTT3=
EXTT4=
EXTT5=
EXTT6=
EXTT7=
EXTT8=
EXTT9=
EXTT10=
EXTT11=
EXTT12=
EXTT13=
EXTT14=
PLAYORDER=
